<svg version="1.1" id="Download_on_the_App_Store_Badge" xmlns="http://www.w3.org/2000/svg" xmlns:xlink="http://www.w3.org/1999/xlink" x="0px" y="0px" viewBox="0 0 156.6 46.4" enable-background="new 0 0 156.6 46.4" width="140" height="42" xml:space="preserve">
                                    <title lang="en">App Store Logo</title>
                                    <path id="Path_11285" fill="#A6A6A6" d="M151,46.4H5.5c-3,0-5.5-2.5-5.5-5.5V5.5C0,2.5,2.5,0,5.5,0H151c3,0,5.5,2.4,5.6,5.5v35.4
	C156.6,44,154.1,46.4,151,46.4L151,46.4z"></path>
                                    <path id="Path_11286" fill="#1E1E1E" d="M155.5,40.9c0,2.5-2,4.4-4.4,4.4c0,0,0,0,0,0H5.5c-2.5,0-4.4-2-4.5-4.4V5.5C1,3,3,1,5.5,1
	H151c2.5,0,4.4,2,4.4,4.4c0,0,0,0,0,0V40.9z"></path>
                                    <g id="Group_6123" transform="translate(14.839 7.212)">
                                        <g id="Group_6122">
                                            <path id="Path_11287" fill="#FFFFFF" d="M20.1,15.7c0-2.3,1.2-4.4,3.2-5.6c-1.2-1.8-3.3-2.9-5.4-2.9c-2.3-0.2-4.5,1.4-5.7,1.4
			c-1.2,0-3-1.3-4.9-1.3c-2.5,0.1-4.8,1.5-6.1,3.7c-2.6,4.6-0.7,11.2,1.9,14.9c1.3,1.8,2.7,3.8,4.7,3.7c1.9-0.1,2.6-1.2,4.9-1.2
			c2.3,0,2.9,1.2,4.9,1.2c2,0,3.3-1.8,4.5-3.6c0.9-1.3,1.6-2.7,2.1-4.2C21.7,20.7,20.1,18.4,20.1,15.7z"></path>
                                            <path id="Path_11288" fill="#FFFFFF" d="M16.4,4.7c1.1-1.3,1.6-3,1.5-4.7c-1.7,0.2-3.2,1-4.4,2.3c-1.1,1.3-1.7,2.9-1.6,4.6
			C13.7,6.8,15.3,6.1,16.4,4.7z"></path>
                                        </g>
                                    </g>
                                    <g id="Group_6124" transform="translate(49.198 20.882)">
                                        <path id="Path_11289" fill="#FFFFFF" d="M13,15.7h-2.6L9,11.1h-5l-1.4,4.5H0L5,0.2H8L13,15.7z M8.5,9.2l-1.3-4
		C7.1,4.8,6.8,3.8,6.4,2.3h0C6.2,2.9,6,3.9,5.7,5.2l-1.3,4H8.5z"></path>
                                        <path id="Path_11290" fill="#FFFFFF" d="M25.8,10c0.1,1.6-0.5,3.2-1.5,4.5c-0.9,1-2.1,1.5-3.4,1.5c-1.3,0.1-2.5-0.5-3.2-1.6h0v5.9
		h-2.5v-12c0-1.2,0-2.4-0.1-3.7h2.2l0.1,1.8h0c1.3-2,4.1-2.6,6.1-1.3c0.4,0.2,0.7,0.5,1,0.8C25.4,7,25.9,8.5,25.8,10z M23.3,10.1
		c0-0.9-0.2-1.9-0.7-2.7c-0.5-0.7-1.3-1.1-2.2-1.1c-0.6,0-1.2,0.2-1.7,0.6c-0.5,0.4-0.8,1-1,1.6c-0.1,0.2-0.1,0.5-0.1,0.8v1.9
		c0,0.8,0.2,1.5,0.7,2.1c0.5,0.6,1.2,0.9,1.9,0.8c0.9,0,1.7-0.4,2.2-1.1C23.1,12.1,23.3,11.1,23.3,10.1L23.3,10.1z"></path>
                                        <path id="Path_11291" fill="#FFFFFF" d="M38.6,10c0.1,1.6-0.5,3.2-1.5,4.5c-0.9,1-2.1,1.5-3.4,1.5c-1.3,0.1-2.5-0.5-3.2-1.6h0v5.9
		H28v-12c0-1.2,0-2.4-0.1-3.7h2.2l0.1,1.8h0c1.3-2,4.1-2.6,6.1-1.3c0.4,0.2,0.7,0.5,1,0.8C38.2,7,38.7,8.5,38.6,10z M36.1,10.1
		c0-0.9-0.2-1.9-0.7-2.7c-0.5-0.7-1.3-1.1-2.2-1.1c-0.6,0-1.2,0.2-1.7,0.6c-0.5,0.4-0.8,1-1,1.6c-0.1,0.2-0.1,0.5-0.1,0.8v1.9
		c0,0.8,0.2,1.5,0.7,2.1c0.5,0.6,1.2,0.9,1.9,0.8c0.9,0,1.7-0.4,2.2-1.1C35.9,12.1,36.1,11.1,36.1,10.1z"></path>
                                        <path id="Path_11292" fill="#FFFFFF" d="M52.9,11.3c0,1.2-0.5,2.4-1.4,3.2c-1.2,1-2.7,1.4-4.2,1.4c-1.4,0.1-2.8-0.3-4-1l0.6-2.1
		c1.1,0.7,2.3,1,3.6,1c0.8,0,1.5-0.2,2.2-0.6c0.5-0.4,0.8-1,0.8-1.7c0-0.6-0.2-1.2-0.6-1.6c-0.6-0.5-1.3-0.9-2.1-1.2
		c-2.7-1-4.1-2.5-4.1-4.4c0-1.2,0.5-2.4,1.4-3.1c1.1-0.9,2.4-1.3,3.8-1.2c1.2,0,2.4,0.2,3.5,0.7l-0.6,2c-0.9-0.5-1.9-0.7-3-0.7
		c-0.7,0-1.5,0.2-2,0.6c-0.4,0.4-0.6,0.9-0.6,1.4c0,0.6,0.3,1.1,0.7,1.5c0.7,0.5,1.4,0.9,2.2,1.2c1.1,0.4,2.1,1,2.9,1.9
		C52.6,9.4,53,10.4,52.9,11.3z"></path>
                                        <path id="Path_11293" fill="#FFFFFF" d="M61.1,6.4h-2.7v5.4c0,1.4,0.5,2.1,1.4,2.1c0.4,0,0.7,0,1.1-0.1l0.1,1.9
		c-0.6,0.2-1.3,0.3-1.9,0.3c-0.9,0-1.7-0.3-2.3-0.9c-0.6-0.9-0.9-1.9-0.8-3V6.4h-1.6V4.5H56v-2l2.4-0.7v2.8h2.7V6.4L61.1,6.4z"></path>
                                        <path id="Path_11294" fill="#FFFFFF" d="M73.4,10c0.1,1.5-0.5,3-1.5,4.2c-1,1.1-2.5,1.8-4.1,1.7C66.4,16,65,15.4,64,14.3
		c-1-1.1-1.5-2.6-1.5-4.1C62.5,8.6,63,7.1,64,6c1-1.1,2.5-1.7,4-1.6C69.5,4.2,71,4.8,72,5.9C73,7.1,73.5,8.5,73.4,10z M70.8,10.1
		c0-0.9-0.2-1.8-0.7-2.6c-0.4-0.8-1.3-1.3-2.2-1.3c-0.9,0-1.8,0.5-2.3,1.3C65.2,8.3,65,9.2,65,10.1c0,0.9,0.2,1.8,0.7,2.6
		c0.7,1.2,2.2,1.7,3.4,1c0.4-0.2,0.8-0.6,1-1.1C70.6,11.9,70.9,11,70.8,10.1L70.8,10.1z"></path>
                                        <path id="Path_11295" fill="#FFFFFF" d="M81.4,6.7c-0.3,0-0.5-0.1-0.8-0.1c-0.8,0-1.6,0.3-2,1C78.2,8.3,78,9,78,9.8v5.8h-2.5l0-7.6
		c0-1.3,0-2.5-0.1-3.5h2.2l0.1,2.1h0.1C78,6,78.5,5.4,79,4.9c0.5-0.4,1.1-0.6,1.8-0.6c0.2,0,0.4,0,0.6,0L81.4,6.7L81.4,6.7z"></path>
                                        <path id="Path_11296" fill="#FFFFFF" d="M92.5,9.6c0,0.4,0,0.8-0.1,1.1H85c0,1,0.4,1.9,1.1,2.5c0.7,0.5,1.6,0.8,2.4,0.8
		c1,0,2-0.2,3-0.5l0.4,1.7c-1.2,0.5-2.5,0.7-3.7,0.7c-1.5,0.1-3-0.5-4.1-1.5c-1-1.1-1.6-2.6-1.5-4.1c-0.1-1.5,0.4-3,1.4-4.2
		c0.9-1.2,2.4-1.8,3.9-1.8c1.4-0.1,2.8,0.6,3.6,1.8C92.2,7.1,92.6,8.3,92.5,9.6z M90.2,8.9c0-0.7-0.1-1.3-0.5-1.9
		c-0.4-0.7-1.2-1.1-2-1c-0.8,0-1.5,0.4-2,1c-0.4,0.6-0.7,1.2-0.7,1.9C85,8.9,90.2,8.9,90.2,8.9z"></path>
                                    </g>
                                    <g id="Group_6126" transform="translate(50.667 7.605)">
                                        <g id="Group_6125">
                                            <path id="Path_11297" fill="#FFFFFF" d="M6.2,4C6.3,5.2,5.9,6.3,5,7.1c-0.9,0.7-2.1,1-3.2,1C1.2,8.1,0.6,8,0,8V0.5
			c0.7-0.1,1.4-0.2,2.1-0.2c1.1-0.1,2.1,0.2,3,0.9C5.9,1.9,6.3,2.9,6.2,4z M5,4C5,3.3,4.8,2.6,4.3,2C3.7,1.5,2.9,1.2,2.2,1.3
			c-0.3,0-0.7,0-1,0.1V7c0.3,0,0.5,0,0.8,0c0.8,0.1,1.6-0.2,2.2-0.8C4.7,5.7,5,4.9,5,4z"></path>
                                            <path id="Path_11298" fill="#FFFFFF" d="M13,5.2c0,0.8-0.2,1.5-0.7,2.1c-0.5,0.6-1.2,0.9-2,0.8c-0.7,0-1.4-0.3-1.9-0.8
			C7.9,6.7,7.7,6,7.7,5.3c0-0.8,0.2-1.5,0.7-2.1c0.5-0.5,1.2-0.8,2-0.8c0.7,0,1.4,0.3,1.9,0.8C12.8,3.8,13.1,4.5,13,5.2z M11.8,5.2
			c0-0.5-0.1-0.9-0.3-1.3c-0.2-0.4-0.6-0.7-1.1-0.7c-0.5,0-0.9,0.2-1.1,0.7C9,4.3,8.9,4.8,8.9,5.3c0,0.5,0.1,0.9,0.3,1.3
			C9.5,7,9.9,7.2,10.3,7.2c0.5,0,0.9-0.3,1.1-0.7C11.7,6.1,11.8,5.7,11.8,5.2L11.8,5.2z"></path>
                                            <path id="Path_11299" fill="#FFFFFF" d="M22.1,2.5L20.4,8h-1.1l-0.7-2.4c-0.2-0.6-0.3-1.2-0.4-1.8h0C18,4.4,17.9,5,17.7,5.6L17,8
			h-1.1l-1.6-5.5h1.2l0.6,2.6c0.1,0.6,0.3,1.2,0.4,1.8h0c0.1-0.5,0.2-1,0.5-1.7l0.8-2.6h1l0.7,2.6c0.2,0.6,0.3,1.2,0.4,1.8h0
			c0.1-0.6,0.2-1.2,0.4-1.8L21,2.5L22.1,2.5L22.1,2.5z"></path>
                                            <path id="Path_11300" fill="#FFFFFF" d="M28.4,8h-1.2V4.8c0-1-0.4-1.4-1.1-1.4c-0.3,0-0.7,0.1-0.9,0.4c-0.2,0.3-0.3,0.6-0.3,0.9V8
			h-1.2V4.1c0-0.5,0-1,0-1.6h1.1l0.1,0.9h0c0.1-0.3,0.4-0.5,0.6-0.7c0.3-0.2,0.7-0.3,1.1-0.3c0.5,0,0.9,0.2,1.3,0.5
			c0.5,0.5,0.7,1.1,0.6,1.8L28.4,8z"></path>
                                            <path id="Path_11301" fill="#FFFFFF" d="M31.8,8h-1.2V0h1.2V8z"></path>
                                            <path id="Path_11302" fill="#FFFFFF" d="M39,5.2c0,0.8-0.2,1.5-0.7,2.1c-0.5,0.6-1.2,0.9-2,0.8c-0.7,0-1.4-0.3-1.9-0.8
			c-0.5-0.6-0.7-1.3-0.7-2c0-0.8,0.2-1.5,0.7-2.1c0.5-0.5,1.2-0.8,2-0.8c0.7,0,1.4,0.3,1.9,0.8C38.7,3.8,39,4.5,39,5.2z M37.7,5.2
			c0-0.5-0.1-0.9-0.3-1.3c-0.2-0.4-0.6-0.7-1.1-0.7c-0.5,0-0.9,0.2-1.1,0.7c-0.2,0.4-0.3,0.9-0.3,1.3c0,0.5,0.1,0.9,0.3,1.3
			c0.2,0.4,0.6,0.7,1.1,0.7c0.5,0,0.9-0.3,1.1-0.7C37.6,6.2,37.7,5.7,37.7,5.2L37.7,5.2z"></path>
                                            <path id="Path_11303" fill="#FFFFFF" d="M44.8,8h-1.1l-0.1-0.6h0c-0.4,0.5-1,0.8-1.6,0.8c-0.5,0-0.9-0.2-1.2-0.5
			c-0.3-0.3-0.4-0.7-0.4-1.1c0-0.6,0.3-1.2,0.8-1.5c0.7-0.4,1.5-0.6,2.4-0.5V4.3c0-0.7-0.4-1.1-1.1-1.1c-0.5,0-1,0.1-1.4,0.4
			l-0.2-0.8c0.6-0.3,1.2-0.5,1.9-0.5c1.4,0,2.1,0.8,2.1,2.3v2C44.8,7.1,44.8,7.5,44.8,8z M43.6,6.1V5.3c-1.3,0-2,0.3-2,1.1
			c0,0.2,0.1,0.5,0.2,0.6c0.2,0.1,0.4,0.2,0.6,0.2c0.3,0,0.5-0.1,0.7-0.3C43.4,6.8,43.6,6.4,43.6,6.1z"></path>
                                            <path id="Path_11304" fill="#FFFFFF" d="M51.7,8h-1.1l-0.1-0.9h0c-0.3,0.7-1,1.1-1.8,1c-0.6,0-1.2-0.3-1.6-0.8
			c-0.5-0.6-0.7-1.3-0.7-2c0-0.8,0.2-1.5,0.7-2.2c0.4-0.5,1-0.8,1.7-0.8c0.6-0.1,1.2,0.2,1.5,0.7h0V0h1.2v6.5
			C51.7,7,51.7,7.5,51.7,8z M50.5,5.7V4.8c0-0.1,0-0.3,0-0.4c-0.1-0.3-0.2-0.5-0.4-0.7c-0.2-0.2-0.5-0.3-0.8-0.3
			c-0.4,0-0.8,0.2-1.1,0.5c-0.3,0.4-0.4,0.9-0.4,1.4c0,0.5,0.1,0.9,0.4,1.3c0.2,0.3,0.6,0.6,1.1,0.5c0.4,0,0.7-0.2,1-0.4
			C50.4,6.4,50.5,6,50.5,5.7z"></path>
                                            <path id="Path_11305" fill="#FFFFFF" d="M62.1,5.2c0,0.8-0.2,1.5-0.7,2.1c-0.5,0.6-1.2,0.9-2,0.8c-0.7,0-1.4-0.3-1.9-0.8
			c-0.5-0.6-0.7-1.3-0.7-2c0-0.8,0.2-1.5,0.7-2.1c0.5-0.5,1.2-0.8,2-0.8c0.7,0,1.4,0.3,1.9,0.8C61.9,3.8,62.2,4.5,62.1,5.2z
			 M60.9,5.2c0-0.5-0.1-0.9-0.3-1.3c-0.2-0.4-0.6-0.7-1.1-0.7c-0.5,0-0.9,0.2-1.1,0.7C58.1,4.3,58,4.8,58,5.3c0,0.5,0.1,0.9,0.3,1.3
			c0.3,0.6,1.1,0.8,1.7,0.5c0.2-0.1,0.4-0.3,0.5-0.5C60.8,6.2,60.9,5.7,60.9,5.2L60.9,5.2z"></path>
                                            <path id="Path_11306" fill="#FFFFFF" d="M68.7,8h-1.2V4.8c0-1-0.4-1.4-1.1-1.4c-0.3,0-0.7,0.1-0.9,0.4c-0.2,0.3-0.3,0.6-0.3,0.9V8
			h-1.2V4.1c0-0.5,0-1,0-1.6H65L65,3.4h0c0.1-0.3,0.4-0.5,0.6-0.7c0.3-0.2,0.7-0.3,1.1-0.3c0.5,0,0.9,0.2,1.3,0.5
			c0.5,0.5,0.7,1.1,0.6,1.8L68.7,8z"></path>
                                            <path id="Path_11307" fill="#FFFFFF" d="M76.9,3.4h-1.3v2.7c0,0.7,0.2,1,0.7,1c0.2,0,0.4,0,0.5-0.1l0,0.9
			c-0.3,0.1-0.6,0.1-0.9,0.1c-0.4,0-0.8-0.1-1.1-0.4c-0.3-0.4-0.5-0.9-0.4-1.5V3.4h-0.8V2.5h0.8v-1l1.2-0.4v1.4h1.3L76.9,3.4
			L76.9,3.4z"></path>
                                            <path id="Path_11308" fill="#FFFFFF" d="M83.3,8h-1.2V4.9c0-1-0.4-1.5-1.1-1.5c-0.5,0-1,0.3-1.2,0.9c0,0.1-0.1,0.3-0.1,0.4V8h-1.2
			V0h1.2v3.3h0c0.3-0.6,1-0.9,1.6-0.9c0.5,0,0.9,0.2,1.3,0.5c0.4,0.5,0.7,1.2,0.6,1.8L83.3,8L83.3,8z"></path>
                                            <path id="Path_11309" fill="#FFFFFF" d="M89.9,5c0,0.2,0,0.4,0,0.6h-3.6c0,0.5,0.2,0.9,0.5,1.2C87.1,7,87.5,7.2,88,7.2
			c0.5,0,1-0.1,1.5-0.3l0.2,0.8c-0.6,0.2-1.2,0.4-1.8,0.3c-0.7,0-1.5-0.2-2-0.7c-0.5-0.5-0.8-1.3-0.7-2c0-0.7,0.2-1.5,0.7-2.1
			c0.5-0.6,1.2-0.9,1.9-0.9c0.7,0,1.4,0.3,1.8,0.9C89.8,3.8,90,4.4,89.9,5z M88.8,4.7c0-0.3-0.1-0.7-0.2-0.9c-0.2-0.3-0.6-0.5-1-0.5
			c-0.4,0-0.7,0.2-1,0.5c-0.2,0.3-0.3,0.6-0.4,0.9L88.8,4.7L88.8,4.7z"></path>
                                        </g>
                                    </g>
                                </svg>