<svg xmlns="http://www.w3.org/2000/svg" version="1.1" xmlns:xlink="http://www.w3.org/1999/xlink" xmlns:svgjs="http://svgjs.com/svgjs" width="1440" height="560" preserveAspectRatio="none" viewBox="0 0 1440 560"><g mask="url(&quot;#SvgjsMask1039&quot;)" fill="none"><path d="M1464 560L0 560 L0 282.78Q206.59 369.37, 120 575.96Q119.33 455.29, 240 454.61Q248.06 390.67, 312 398.73Q312.29 327.02, 384 327.32Q410.88 282.2, 456 309.08Q536.26 269.34, 576 349.6Q690.83 344.43, 696 459.26Q758.13 449.38, 768 511.51Q813.67 437.18, 888 482.85Q934.8 409.65, 1008 456.46Q984.5 360.95, 1080 337.45Q1259.23 444.68, 1152 623.92Q1121.51 473.43, 1272 442.94Q1277.22 376.16, 1344 381.38Q1409.35 326.73, 1464 392.07z" fill="rgba(249, 159, 31, 0.06)"></path></g><defs><mask id="SvgjsMask1039"><rect width="1440" height="560" fill="#ffffff"></rect></mask></defs></svg>