<svg xmlns="http://www.w3.org/2000/svg" version="1.1" xmlns:xlink="http://www.w3.org/1999/xlink" xmlns:svgjs="http://svgjs.com/svgjs" width="1440" height="560" preserveAspectRatio="none" viewBox="0 0 1440 560"><g mask="url(&quot;#SvgjsMask1042&quot;)" fill="none"><path d="M940 303L1550 302" stroke-width="6" stroke="url(#SvgjsLinearGradient1043)" stroke-linecap="round" class="Right"></path><path d="M60 376L827 375" stroke-width="8" stroke="url(#SvgjsLinearGradient1044)" stroke-linecap="round" class="Left"></path><path d="M664 11L1519 10" stroke-width="6" stroke="url(#SvgjsLinearGradient1045)" stroke-linecap="round" class="Left"></path><path d="M1132 220L718 219" stroke-width="6" stroke="url(#SvgjsLinearGradient1044)" stroke-linecap="round" class="Left"></path><path d="M409 197L-615 196" stroke-width="8" stroke="url(#SvgjsLinearGradient1045)" stroke-linecap="round" class="Left"></path><path d="M1127 358L499 357" stroke-width="6" stroke="url(#SvgjsLinearGradient1046)" stroke-linecap="round" class="Right"></path><path d="M246 101L-515 100" stroke-width="8" stroke="url(#SvgjsLinearGradient1043)" stroke-linecap="round" class="Right"></path><path d="M1285 450L1726 449" stroke-width="8" stroke="url(#SvgjsLinearGradient1044)" stroke-linecap="round" class="Left"></path><path d="M653 35L220 34" stroke-width="8" stroke="url(#SvgjsLinearGradient1046)" stroke-linecap="round" class="Right"></path><path d="M85 140L-292 139" stroke-width="8" stroke="url(#SvgjsLinearGradient1045)" stroke-linecap="round" class="Left"></path><path d="M279 333L914 332" stroke-width="10" stroke="url(#SvgjsLinearGradient1045)" stroke-linecap="round" class="Left"></path><path d="M957 203L1437 202" stroke-width="10" stroke="url(#SvgjsLinearGradient1046)" stroke-linecap="round" class="Right"></path><path d="M1104 479L402 478" stroke-width="8" stroke="url(#SvgjsLinearGradient1046)" stroke-linecap="round" class="Right"></path><path d="M1298 167L2064 166" stroke-width="8" stroke="url(#SvgjsLinearGradient1044)" stroke-linecap="round" class="Left"></path></g><defs><mask id="SvgjsMask1042"><rect width="1440" height="560" fill="#ffffff"></rect></mask><linearGradient x1="0%" y1="0%" x2="100%" y2="0%" id="SvgjsLinearGradient1043"><stop stop-color="rgba(248, 133, 18, 0)" offset="0"></stop><stop stop-color="rgba(248, 133, 18, 0.07)" offset="1"></stop></linearGradient><linearGradient x1="100%" y1="0%" x2="0%" y2="0%" id="SvgjsLinearGradient1044"><stop stop-color="rgba(248, 133, 18, 0)" offset="0"></stop><stop stop-color="rgba(248, 133, 18, 0.07)" offset="1"></stop></linearGradient><linearGradient x1="100%" y1="0%" x2="0%" y2="0%" id="SvgjsLinearGradient1045"><stop stop-color="rgba(242, 74, 27, 0)" offset="0"></stop><stop stop-color="rgba(242, 74, 27, 0.05)" offset="1"></stop></linearGradient><linearGradient x1="0%" y1="0%" x2="100%" y2="0%" id="SvgjsLinearGradient1046"><stop stop-color="rgba(242, 74, 27, 0)" offset="0"></stop><stop stop-color="rgba(242, 74, 27, 0.05)" offset="1"></stop></linearGradient></defs></svg>