<svg version="1.1" id="Google_Play_Store_badge_EN" xmlns="http://www.w3.org/2000/svg" xmlns:xlink="http://www.w3.org/1999/xlink" x="0px" y="0px" viewBox="0 0 157.2 46.4" enable-background="new 0 0 157.2 46.4" width="140" height="42" xml:space="preserve">
                                    <title lang="en">Google Play Logo</title>
                                    <path id="Path_11274" fill-rule="evenodd" clip-rule="evenodd" fill="#1E1E1E" d="M151.3,46.4H5.8c-3.2,0-5.8-2.6-5.8-5.8V5.8
	C0,2.6,2.6,0,5.8,0h145.5c3.2,0,5.8,2.6,5.8,5.8v34.8C157.1,43.8,154.5,46.4,151.3,46.4z"></path>
                                    <path id="Path_11275" fill-rule="evenodd" clip-rule="evenodd" fill="#A6A6A6" d="M151.3,0.9c2.7,0,4.9,2.2,4.9,4.9v34.8
	c0,2.7-2.2,4.9-4.9,4.9H5.8c-2.7,0-4.9-2.2-4.9-4.9V5.8c0-2.7,2.2-4.9,4.9-4.9H151.3z M151.3,0H5.8C2.6,0,0,2.6,0,5.8v34.8
	c0,3.2,2.6,5.8,5.8,5.8h145.5c3.2,0,5.8-2.6,5.8-5.8V5.8C157.1,2.6,154.5,0,151.3,0z"></path>
                                    <path id="Path_11276" fill="#FFFFFF" d="M82.8,15.3c-1,0-1.9-0.4-2.6-1.1c-0.7-0.7-1.1-1.7-1.1-2.7c0-1,0.4-2,1.1-2.7
	c0.7-0.7,1.6-1.1,2.6-1.1c1,0,1.9,0.4,2.6,1.1c1.4,1.5,1.4,3.8,0,5.3C84.7,15,83.8,15.4,82.8,15.3z M51.6,15.3c-1,0-1.9-0.4-2.6-1.1
	c-1.5-1.5-1.5-3.8,0-5.3c0.7-0.7,1.7-1.1,2.7-1.1c0.5,0,1,0.1,1.5,0.3c0.4,0.2,0.8,0.4,1.1,0.8L54.2,9l-0.8,0.8l-0.1-0.1
	c-0.5-0.5-1.1-0.8-1.8-0.8c-0.7,0-1.3,0.3-1.8,0.7c-1,1.1-1,2.8,0,3.9c1,1,2.6,1,3.7,0c0.3-0.3,0.5-0.8,0.5-1.2h-2.5v-1.1H55l0,0.1
	c0,0.2,0,0.4,0.1,0.5c0,0.9-0.3,1.8-0.9,2.4C53.5,15,52.5,15.4,51.6,15.3z M93.1,15.2H92l-3.4-5.4l0,1v4.4h-1.1V8h1.3l0,0.1l3.2,5.1
	l0-1V8h1.1L93.1,15.2z M74.5,15.2h-1.1V9.1h-1.9V8h5v1.1h-1.9L74.5,15.2L74.5,15.2z M70.5,15.2h-1.1V8h1.1V15.2z M64.2,15.2h-1.1
	V9.1h-1.9V8h5v1.1h-1.9L64.2,15.2z M60.4,15.2h-4.3V8h4.3v1.1h-3.2v2h2.9v1.1h-2.9v2h3.2V15.2z M81,13.5c0.5,0.5,1.1,0.8,1.8,0.8
	c0.7,0,1.3-0.3,1.8-0.8c1-1.1,1-2.7,0-3.8c-0.5-0.5-1.1-0.8-1.8-0.8c-0.7,0-1.3,0.3-1.8,0.8C80,10.8,80,12.4,81,13.5L81,13.5z"></path>
                                    <path id="Path_11277" fill-rule="evenodd" clip-rule="evenodd" fill="#FFFFFF" d="M79,25.2c-2.7,0-4.9,2.2-4.9,4.9
	c0,2.7,2.2,4.9,4.9,4.9c2.7,0,4.9-2.2,4.9-4.9c0-2.7-2.1-4.9-4.8-4.9C79.1,25.2,79,25.2,79,25.2z M79,33.1c-1.7,0.1-3.1-1.1-3.2-2.8
	c-0.1-1.7,1.1-3.1,2.8-3.2c1.7-0.1,3.1,1.1,3.2,2.8c0,0.1,0,0.1,0,0.2C81.8,31.7,80.6,33.1,79,33.1C79,33.1,79,33.1,79,33.1L79,33.1
	z M68.2,25.2c-2.7,0-4.9,2.2-4.9,4.9c0,2.7,2.2,4.9,4.9,4.9c2.7,0,4.9-2.2,4.9-4.9c0-2.7-2.1-4.9-4.8-4.9
	C68.3,25.2,68.3,25.2,68.2,25.2z M68.2,33.1c-1.7,0.1-3.1-1.1-3.2-2.8c-0.1-1.7,1.1-3.1,2.8-3.2c1.7-0.1,3.1,1.1,3.2,2.8
	c0,0.1,0,0.1,0,0.2C71,31.7,69.8,33.1,68.2,33.1C68.2,33.1,68.2,33.1,68.2,33.1L68.2,33.1z M55.4,26.7v2.1h5c-0.1,1-0.5,1.9-1.1,2.6
	c-1,1-2.4,1.6-3.9,1.5c-3.1-0.1-5.5-2.6-5.5-5.7c0.1-3,2.5-5.4,5.5-5.5c1.4,0,2.8,0.5,3.8,1.5l1.5-1.5c-1.4-1.4-3.3-2.1-5.2-2.1
	c-4.2,0-7.7,3.3-7.7,7.6c0,4.2,3.3,7.7,7.6,7.7c0.1,0,0.1,0,0.2,0c2,0.1,4-0.7,5.3-2.2c1.2-1.3,1.9-3.1,1.8-4.9c0-0.4,0-0.9-0.1-1.3
	L55.4,26.7L55.4,26.7L55.4,26.7z M107.9,28.4c-0.6-1.8-2.3-3.1-4.2-3.1c-2.6,0-4.7,2.1-4.7,4.7c0,0.1,0,0.1,0,0.2
	c-0.1,2.7,2,4.9,4.7,4.9c0.1,0,0.1,0,0.2,0c1.7,0,3.2-0.8,4.1-2.2l-1.7-1.1c-0.5,0.9-1.4,1.4-2.4,1.4c-1,0-2-0.6-2.4-1.5l6.6-2.7
	L107.9,28.4L107.9,28.4z M101.2,30c-0.1-1.5,1-2.8,2.5-2.9c0,0,0,0,0,0c0.8-0.1,1.5,0.4,1.8,1L101.2,30z M95.8,34.8H98V20.3h-2.2
	V34.8z M92.2,26.3L92.2,26.3c-0.7-0.7-1.7-1.1-2.7-1.1c-2.7,0.1-4.8,2.4-4.7,5.1c0.1,2.6,2.2,4.6,4.7,4.7c1,0,1.9-0.4,2.6-1.1h0.1
	v0.7c0,1.9-1,2.9-2.6,2.9c-1.1,0-2.1-0.7-2.5-1.8l-1.9,0.8c0.7,1.8,2.5,2.9,4.4,2.9c2.5,0,4.7-1.5,4.7-5.1v-8.8h-2L92.2,26.3
	L92.2,26.3z M89.8,33.1c-1.7-0.1-2.9-1.6-2.7-3.3c0.1-1.4,1.3-2.6,2.7-2.7c1.5,0.1,2.7,1.4,2.6,2.9c0,0,0,0.1,0,0.1
	c0.1,1.5-1,2.8-2.5,3C89.8,33.1,89.8,33.1,89.8,33.1L89.8,33.1z M118,20.3h-5.2v14.5h2.2v-5.5h3c2.5,0.1,4.6-1.7,4.8-4.2
	c0.1-2.5-1.7-4.6-4.2-4.8C118.4,20.3,118.2,20.3,118,20.3L118,20.3z M118.1,27.3H115v-5h3.1c1.4,0,2.5,1.1,2.5,2.4
	c0,1.4-1.1,2.5-2.4,2.5C118.2,27.3,118.1,27.3,118.1,27.3L118.1,27.3z M131.5,25.2c-1.6-0.1-3.1,0.8-3.9,2.2l1.9,0.8
	c0.4-0.7,1.2-1.1,2-1.1c1.1-0.1,2.2,0.7,2.3,1.9v0.2c-0.7-0.4-1.5-0.6-2.3-0.6c-2.1,0-4.2,1.1-4.2,3.3c0.1,1.8,1.6,3.3,3.5,3.2
	c0,0,0.1,0,0.1,0c1.1,0.1,2.2-0.5,2.8-1.4h0.1v1.1h2.1v-5.6C135.8,26.6,133.9,25.2,131.5,25.2L131.5,25.2z M131.2,33.1
	c-0.7,0-1.7-0.3-1.7-1.2c0-1.1,1.2-1.5,2.3-1.5c0.7,0,1.4,0.1,2,0.5C133.6,32.1,132.5,33.1,131.2,33.1L131.2,33.1z M143.5,25.5
	l-2.5,6.3h-0.1l-2.6-6.3H136l3.9,8.8l-2.2,4.9h2.3l5.9-13.7H143.5z M124,34.8h2.2V20.3H124V34.8z"></path>
                                    <linearGradient id="Path_11278_00000085223732376834801890000006773540623856107153_" gradientUnits="userSpaceOnUse" x1="-818.8903" y1="545.0884" x2="-819.0013" y2="545.1185" gradientTransform="matrix(14.9996 0 0 -29.049 12331.1855 15876.2988)">
                                        <stop offset="0" style="stop-color:#00A0FF"></stop>
                                        <stop offset="7.000001e-03" style="stop-color:#00A1FF"></stop>
                                        <stop offset="0.26" style="stop-color:#00BEFF"></stop>
                                        <stop offset="0.512" style="stop-color:#00D2FF"></stop>
                                        <stop offset="0.76" style="stop-color:#00DFFF"></stop>
                                        <stop offset="1" style="stop-color:#00E3FF"></stop>
                                    </linearGradient>
                                    <path id="Path_11278" fill-rule="evenodd" clip-rule="evenodd" fill="url(#Path_11278_00000085223732376834801890000006773540623856107153_)" d="
	M12.1,8.7c-0.4,0.5-0.6,1-0.5,1.6V36c0,0.6,0.2,1.2,0.5,1.6l0.1,0.1l14.4-14.4V23L12.1,8.7L12.1,8.7z"></path>
                                    <linearGradient id="Path_11279_00000108987454879154026470000001337080332058928826_" gradientUnits="userSpaceOnUse" x1="-803.3055" y1="511.463" x2="-803.5655" y2="511.463" gradientTransform="matrix(11.7734 0 0 -9.916 9507.1729 5094.8608)">
                                        <stop offset="0" style="stop-color:#FFE000"></stop>
                                        <stop offset="0.409" style="stop-color:#FFBD00"></stop>
                                        <stop offset="0.775" style="stop-color:#FFA500"></stop>
                                        <stop offset="1" style="stop-color:#FF9C00"></stop>
                                    </linearGradient>
                                    <path id="Path_11279" fill-rule="evenodd" clip-rule="evenodd" fill="url(#Path_11279_00000108987454879154026470000001337080332058928826_)" d="
	M31.3,28.1l-4.8-4.8V23l4.8-4.8l0.1,0.1l5.7,3.2c1.6,0.9,1.6,2.4,0,3.3L31.3,28.1L31.3,28.1z"></path>
                                    <linearGradient id="Path_11280_00000084496312343690559850000004347080617046010788_" gradientUnits="userSpaceOnUse" x1="-833.5115" y1="527.9266" x2="-833.6025" y2="528.0796" gradientTransform="matrix(19.347 0 0 -14.9225 16157.4697 7923.4678)">
                                        <stop offset="0" style="stop-color:#FF3A44"></stop>
                                        <stop offset="1" style="stop-color:#C31162"></stop>
                                    </linearGradient>
                                    <path id="Path_11280" fill-rule="evenodd" clip-rule="evenodd" fill="url(#Path_11280_00000084496312343690559850000004347080617046010788_)" d="
	M31.4,28.1l-4.9-4.9L12.1,37.6c0.7,0.6,1.7,0.6,2.4,0.1L31.4,28.1"></path>
                                    <linearGradient id="Path_11281_00000060721304501508593390000008595189634504641721_" gradientUnits="userSpaceOnUse" x1="-834.4232" y1="528.3748" x2="-834.3823" y2="528.4428" gradientTransform="matrix(19.347 0 0 -14.915 16157.4424 7904.3369)">
                                        <stop offset="0" style="stop-color:#32A071"></stop>
                                        <stop offset="6.800000e-02" style="stop-color:#2DA771"></stop>
                                        <stop offset="0.476" style="stop-color:#15CF74"></stop>
                                        <stop offset="0.801" style="stop-color:#06E775"></stop>
                                        <stop offset="1" style="stop-color:#00F076"></stop>
                                    </linearGradient>
                                    <path id="Path_11281" fill-rule="evenodd" clip-rule="evenodd" fill="url(#Path_11281_00000060721304501508593390000008595189634504641721_)" d="
	M31.4,18.3L14.5,8.7c-0.7-0.6-1.7-0.5-2.4,0.1l14.5,14.4L31.4,18.3z"></path>
                                    <path id="Path_11282" opacity="0.2" fill-rule="evenodd" clip-rule="evenodd" enable-background="new    " d="M31.3,28l-16.8,9.6
	c-0.7,0.5-1.6,0.5-2.3,0l-0.1,0.1l0.1,0.1c0.7,0.5,1.6,0.5,2.3,0l16.9-9.6L31.3,28z"></path>
                                    <path id="Path_11283" opacity="0.12" fill-rule="evenodd" clip-rule="evenodd" enable-background="new    " d="M37.1,24.7L31.3,28
	l0.1,0.1l5.7-3.2c0.7-0.3,1.1-0.9,1.2-1.7C38.2,23.8,37.7,24.4,37.1,24.7z"></path>
                                    <path id="Path_11284" opacity="0.25" fill-rule="evenodd" clip-rule="evenodd" fill="#FFFFFF" enable-background="new    " d="
	M14.5,8.8l22.6,12.8c0.6,0.3,1.1,0.8,1.2,1.5c-0.1-0.7-0.5-1.4-1.2-1.7L14.5,8.7c-1.6-0.9-2.9-0.2-2.9,1.7v0.2
	C11.6,8.7,12.9,7.9,14.5,8.8z"></path>
                                </svg>