<svg xmlns="http://www.w3.org/2000/svg" width="99.091" height="121.114" viewBox="0 0 99.091 121.114">
  <g id="Group_2116" data-name="Group 2116" transform="translate(-392.806 -726.73)">
    <g id="scan" transform="translate(392.806 748.753)">
      <path id="Combined_Shape" data-name="Combined Shape" d="M468.233,927.167v-5.916h17.748V903.5H491.9v23.664Zm-75.427,0V903.5h5.917v17.748H416.47v5.916Zm87.257-11.833H450.486V903.5h-5.916v-5.917h-4.437v-5.914h5.916v5.915h4.437V891.67h-5.916v-5.915h17.748v-5.917H440.132v5.917h-5.914v-5.917h4.437V868.008h5.915v5.917h17.748v-4.439H450.486V839.907h29.579v29.579H468.233V875.4h-5.917v4.437h5.917v5.917h11.831v29.579ZM456.4,909.418h17.748V891.67H456.4Zm0-45.846H474.15V845.824H456.4Zm-40.354,51.763v-5.705h-5.494v5.7h-5.916V909.42h5.705v-5.494h5.706V892.517h-5.495V903.5h-5.916V891.672h5.705v-4.86h5.706v-5.7H404.637V875.4H433.16v5.706H421.752v17.112h5.7v5.7h-5.7v5.7H433.16v-5.7h5.7v5.7h5.7v5.7ZM462.317,903.5v-5.917h5.917V903.5ZM428.3,897.586V885.756h5.916v11.831Zm39.932-17.747v-5.915h11.831v5.915Zm-34.019-10.353H404.637V839.907h29.579v5.916h5.916v5.915h-5.916v17.748Zm-23.66-5.914H428.3V845.824H410.554Zm29.579,0V851.74h5.916v11.831Zm22.184-5.917V851.74h5.916v5.915Zm-45.847,0V851.74h5.915v5.915Zm69.51-5.915V833.992H468.233v-5.916H491.9V851.74Zm-93.175,0V828.076H416.47v5.916H398.722V851.74Zm47.326-5.916v-5.916h5.916v5.916Z" transform="translate(-392.806 -828.076)" fill="#12703c"/>
    </g>
    <path id="Path_1355" data-name="Path 1355" d="M530.706,1010.489l-2.5-2.5H515.879a5.885,5.885,0,0,1-5.879-5.878V988.879A5.885,5.885,0,0,1,515.879,983h13.232a5.885,5.885,0,0,1,5.879,5.879v12.654l8.956,8.956Zm-5.495-12.278v-5.432h-5.433v5.432Z" transform="translate(-91.728 -200.582)" fill="#fff"/>
    <path id="Path_1356" data-name="Path 1356" d="M621.918,1009.133v-6.554H618.1v6.554h-4.681l-5.283-5.283V984H622.88a9.35,9.35,0,0,1,6.5,2.589,8.939,8.939,0,0,1,2.848,6.682,8.492,8.492,0,0,1-1.12,4.351,7.325,7.325,0,0,1,.775,3.327v8.185Z" transform="translate(-168.539 -201.365)" fill="#fff"/>
    <path id="Path_1357" data-name="Path 1357" d="M638.564,1009.277a4.917,4.917,0,0,0,2.144-4.266,5.654,5.654,0,0,0-1.818-4.3A6.038,6.038,0,0,0,634.621,999H623.136v15.241l3.374,3.374h.072v-6.554h8.039a2.7,2.7,0,0,1,1.723.543,1.37,1.37,0,0,1,.574,1.086v4.925h3.445v-4.925A3.989,3.989,0,0,0,638.564,1009.277Zm-3.943-1.512h-8.039V1002.3h8.039q2.642,0,2.642,2.715Q637.262,1007.765,634.621,1007.764Z" transform="translate(-180.279 -213.106)" fill="#d6001c"/>
    <g id="Group_2115" data-name="Group 2115" transform="translate(393.37 726.73)">
      <path id="Path_1358" data-name="Path 1358" d="M408.056,734.633a3.714,3.714,0,0,0,1.369-3.221,4.584,4.584,0,0,0-1.217-3.32,5.094,5.094,0,0,0-3.8-1.362H395.4v15.939h9.127a5.352,5.352,0,0,0,3.651-1.2,4.379,4.379,0,0,0,1.369-3.487A3.89,3.89,0,0,0,408.056,734.633Zm-9.918-5.08h6.723a1.629,1.629,0,0,1,1.825,1.859q0,1.893-1.825,1.893h-6.723Zm6.845,10.294h-6.845v-3.752h6.845q1.825,0,1.825,1.893A1.629,1.629,0,0,1,404.983,739.846Z" transform="translate(-395.4 -726.73)" fill="#d6001c"/>
      <path id="Path_1359" data-name="Path 1359" d="M480.442,726.73h-4.107a5.547,5.547,0,0,0-4,1.411,4.93,4.93,0,0,0-1.475,3.736v10.792H473.6v-5.147h9.583v5.147h2.738V731.877a4.931,4.931,0,0,0-1.476-3.736A5.549,5.549,0,0,0,480.442,726.73Zm2.738,7.969H473.6v-2.822a2.294,2.294,0,0,1,.608-1.76,3.13,3.13,0,0,1,2.13-.564h4.107a3.131,3.131,0,0,1,2.13.564,2.3,2.3,0,0,1,.609,1.76Z" transform="translate(-454.462 -726.73)" fill="#d6001c"/>
      <path id="Path_1360" data-name="Path 1360" d="M560.1,726.73h-4.563a5.021,5.021,0,0,0-3.605,1.345,4.418,4.418,0,0,0-1.414,3.337v11.257h2.738V731.412q0-1.859,2.282-1.859H560.1q2.282,0,2.282,1.859v11.257h2.738V731.412a4.419,4.419,0,0,0-1.415-3.337A5.021,5.021,0,0,0,560.1,726.73Z" transform="translate(-516.811 -726.73)" fill="#d6001c"/>
      <path id="Path_1361" data-name="Path 1361" d="M636.565,736.094H642.5v3.752h-6.389a3.335,3.335,0,0,1-2.342-.78,2.6,2.6,0,0,1-.852-2.009v-4.715a2.6,2.6,0,0,1,.852-2.009,3.336,3.336,0,0,1,2.342-.78h8.67V726.73h-8.67a5.851,5.851,0,0,0-4.229,1.644,5.313,5.313,0,0,0-1.7,3.968v4.715a5.313,5.313,0,0,0,1.7,3.968,5.852,5.852,0,0,0,4.229,1.644h9.127V733.3h-8.67Z" transform="translate(-579.159 -726.73)" fill="#d6001c"/>
      <path id="Path_1362" data-name="Path 1362" d="M713.973,737.987V726.73h-2.738v11.257a4.418,4.418,0,0,0,1.415,3.337,5.021,5.021,0,0,0,3.605,1.345h7.758v-2.823h-7.758Q713.973,739.846,713.973,737.987Z" transform="translate(-642.604 -726.73)" fill="#d6001c"/>
      <path id="Path_1363" data-name="Path 1363" d="M791.876,728.141a5.548,5.548,0,0,0-4-1.411h-4.107a5.548,5.548,0,0,0-4,1.411,4.93,4.93,0,0,0-1.475,3.736v10.792h2.738v-5.147h9.583v5.147h2.738V731.877A4.93,4.93,0,0,0,791.876,728.141Zm-1.262,6.558h-9.583v-2.822a2.294,2.294,0,0,1,.608-1.76,3.131,3.131,0,0,1,2.13-.564h4.107a3.13,3.13,0,0,1,2.129.564,2.3,2.3,0,0,1,.609,1.76Z" transform="translate(-695.09 -726.73)" fill="#d6001c"/>
    </g>
    <rect id="Rectangle_396" data-name="Rectangle 396" width="5.215" height="5.433" transform="translate(428.051 792.196)" fill="#12703d"/>
    <path id="Path_1364" data-name="Path 1364" d="M543.378,1014.531a2.6,2.6,0,0,0,.092-.68v-13.232A2.619,2.619,0,0,0,540.851,998H527.619a2.619,2.619,0,0,0-2.619,2.619v13.232a2.619,2.619,0,0,0,2.619,2.619h13.232a2.6,2.6,0,0,0,.411-.036l2.534,2.534h4.02Zm-3.167-2.016a.7.7,0,0,1-.7.7h-10.56a.7.7,0,0,1-.7-.7v-10.559a.7.7,0,0,1,.7-.7h10.56a.7.7,0,0,1,.7.7Z" transform="translate(-103.468 -212.323)" fill="#d6001c"/>
  </g>
</svg>
